<svg id="svg" version="1.1" viewBox="0 0 300 300" width="300" height="300" xmlns="http://www.w3.org/2000/svg">
<svg xmlns="http://www.w3.org/2000/svg">
<defs>
<clipPath id="clip-1">
<rect x="0" y="0" transform="scale(0.14648,0.14648)" width="2048" height="2048" fill="none"/>
</clipPath>
</defs>
<g clip-path="url(#clip-1)" fill="none" fill-rule="nonzero" stroke="none" stroke-width="1" stroke-linecap="butt" stroke-linejoin="miter" stroke-miterlimit="10" stroke-dasharray="" stroke-dashoffset="0" font-family="none" font-weight="none" font-size="none" text-anchor="none" style="mix-blend-mode: normal">
<path d="M0,0h300v300h-300z" fill="transparent"/>
<path d="M148.43701,33.44414c2.21191,-0.1478 3.51563,-0.05098 5.19434,1.56299c3.05713,2.93994 6.00732,6.02344 8.9751,9.05098l14.18701,14.2563l45.91846,46.10845l31.29346,31.16572c3.21973,3.23643 6.5332,6.42085 9.69287,9.71118c0.47314,0.49263 0.85693,1.05762 1.10449,1.69585c0.54346,1.40039 0.52295,3.18896 -0.09668,4.55859c-1.13232,2.50781 -9.0542,9.87891 -11.45654,12.31641l-29.80957,29.78906l-40.49854,40.68604c-7.31543,7.54395 -14.74365,14.98096 -22.27881,22.30664c-2.31299,2.26611 -6.8335,7.51172 -9.52881,8.47998c-1.12207,0.15967 -3.05859,0.22266 -3.95215,-0.47754c-3.59663,-2.81982 -7.321,-6.93311 -10.5498,-10.16016c-8.85161,-8.75098 -17.63364,-17.57227 -26.34536,-26.4624l-42.88066,-43.19678c-7.71387,-7.62012 -15.35933,-15.30762 -22.9355,-23.06396c-2.69092,-2.73047 -5.39341,-5.41992 -8.10923,-8.15479c-2.05181,-2.06689 -2.85601,-4.86914 -1.22461,-7.49458c0.82734,-1.33125 2.42651,-2.61694 3.54829,-3.75161c1.29185,-1.30649 2.62485,-2.59512 3.92725,-3.89956l20.77822,-20.73105l55.54644,-55.81992c6.62812,-6.79204 13.31382,-13.52783 20.05605,-20.20664c2.19917,-2.2103 4.33887,-4.45752 6.52778,-6.67427c0.90981,-0.92153 1.67871,-1.29097 2.9165,-1.59492z" fill="#e20805"/>
<path d="M148.96582,36.19438c1.18945,-0.03516 1.74756,0.09932 2.63818,0.96577c3.54053,3.44722 6.97412,7.00474 10.4458,10.52168l17.39941,17.52729l46.01514,46.43965l25.25391,24.8981c3.28271,3.27524 7.23633,6.83994 10.23779,10.27148c0.5918,0.67822 1.46338,1.68311 1.35059,2.64697c-0.1626,1.40625 -6.06885,7.07959 -7.27881,8.32764c-10.91016,11.05078 -21.87891,22.04297 -32.90625,32.97656l-40.04004,40.26416l-23.01416,23.01123c-1.48096,1.44873 -2.9502,2.91064 -4.40771,4.38281c-1.20996,1.24365 -2.79053,3.03369 -4.14111,4.00342c-1.37256,0.21533 -1.93652,-0.2124 -2.88135,-1.13525c-2.62837,-2.5708 -5.18892,-5.21924 -7.77612,-7.83252c-4.76147,-4.83398 -9.5606,-9.63281 -14.39692,-14.39209l-56.69194,-57.16846c-6.98364,-6.89795 -13.90972,-13.85303 -20.7772,-20.8667c-2.22495,-2.20752 -4.42427,-4.43994 -6.59751,-6.69873c-1.22505,-1.26416 -2.44058,-2.40088 -3.46626,-3.82617c-0.9375,-1.30078 -0.74487,-2.25146 0.35332,-3.4248c2.47207,-2.64243 5.15098,-5.18408 7.7146,-7.74155l17.06367,-16.9374l63.93838,-64.17246l16.4499,-16.53311c1.31982,-1.33037 4.2271,-4.79282 5.5147,-5.50752z" fill="#000000"/>
<path d="M149.72021,43.3311c2.15332,1.68911 5.34668,5.03936 7.34912,7.03359l13.70801,13.78989l27.78369,27.84976c5.79932,5.81265 12.27393,12.02197 17.80078,17.99663c-0.72656,0.56982 -1.42822,1.09131 -2.07861,1.74961c-2.3584,-2.05342 -4.4751,-4.08545 -6.69287,-6.28799c-1.74609,-1.73394 -3.55811,-3.37017 -5.08154,-5.31606c-0.0542,5.53682 -0.07031,11.07393 -0.04834,16.61104c0.02051,2.78276 0.21973,8.92046 -0.19482,11.45142c-1.01221,0.98525 -1.9834,1.4855 -2.75391,2.58223c-0.66064,-0.79922 -1.08838,-1.29785 -1.62598,-2.18467l1.63184,-0.71104v-19.97856c-0.00146,-3.24463 -0.09229,-7.58188 0.09229,-10.771c-0.95068,-0.71895 -1.78271,-1.58276 -2.62646,-2.42227c-2.84619,-2.83447 -5.78906,-5.57432 -8.43164,-8.60596c-0.31934,7.24556 0.02637,15.04805 -0.07031,22.37886c4.9248,2.17031 5.32178,8.26348 0.15088,10.20747c-2.78467,1.04678 -5.83301,-0.96152 -6.73389,-3.65273c-0.87451,-2.93716 0.94482,-5.51719 3.49365,-6.74165c0.11279,-8.15361 -0.23291,-17.20386 0.104,-25.24248c-3.3999,-3.13462 -6.61084,-6.51035 -9.94629,-9.71909c-1.33887,-1.28789 -2.79199,-2.7375 -3.87891,-4.23574c-0.22998,5.46606 -0.10986,11.41216 -0.12598,16.92817c7.0752,2.27783 3.34717,12.36753 -3.30322,10.14038c-3.06445,-1.02642 -4.12939,-4.55083 -2.97217,-7.34077c0.58008,-1.4855 2.03174,-2.34214 3.45117,-2.95503c-0.30176,-5.42065 0.09961,-11.10967 0.00439,-16.54966c-0.01904,-1.00239 0,-2.18437 0.09521,-3.17769c-1.2627,-1.14214 -2.52979,-2.36572 -3.74268,-3.56396c-4.61719,-4.56211 -9.48047,-8.95767 -13.88232,-13.72559c-0.1875,3.56411 -0.19482,6.83599 -0.12891,10.41431c0.04102,2.27915 0.15088,4.92568 -0.03076,7.16997c3.17725,1.21201 5.07568,3.91362 3.66943,7.304c-0.60059,1.46426 -1.78418,2.6124 -3.26514,3.16963c-1.2832,0.47695 -2.5752,0.4251 -3.81152,-0.16318c-1.40771,-0.65405 -2.48306,-1.86006 -2.97246,-3.33325c-1.13745,-3.39141 0.7585,-5.41743 3.43096,-7.1105c-0.15527,-3.0917 0.06299,-6.92578 0.0791,-10.08252c0.01025,-1.84922 -0.00586,-5.53872 0.20361,-7.20688c-3.49951,3.18311 -7.06304,6.86455 -10.43569,10.22739c-1.88262,1.8772 -5.75801,5.377 -7.25713,7.21318c-0.06445,6.19585 0.13901,12.44502 0.00835,18.64409c-0.04351,2.06763 0.13916,5.35298 -0.05947,7.30488c0.62007,0.40298 1.14858,0.75439 1.71504,1.22593c5.72871,4.76821 -0.97808,12.1147 -6.66431,8.17749c-2.16885,-1.50176 -2.60083,-5.31533 -0.76597,-7.21362c0.87671,-0.9479 1.65732,-1.38398 2.7353,-2.03789l-0.05493,-23.03774c-4.69541,4.92598 -8.99106,9.2521 -13.79604,14.04639c0.10269,7.30854 -0.10474,14.62456 0.05786,21.93428c0.01816,0.81504 0.03516,1.68223 -0.00908,2.49302c1.74404,1.09482 3.29561,2.23389 3.75513,4.41665c0.30103,1.38267 0.00703,2.82803 -0.81035,3.98306c-0.82837,1.17275 -2.09238,1.96436 -3.50918,2.19756c-6.10415,1.03169 -9.30366,-6.98086 -2.54385,-10.53633c0.00952,-7.10317 0.2395,-14.42593 0.11704,-21.47842c-3.66401,3.53657 -7.54907,7.32319 -10.96084,11.09736c0.25269,9.32725 -0.11558,19.56211 -0.11191,28.98999c1.9626,2.71816 4.36099,4.18711 6.03018,6.75601l-1.83032,1.87119c-2.71143,-2.20195 -4.71797,-4.73979 -7.10361,-7.19517c-0.12173,-3.00059 -0.15073,-6.00571 -0.05933,-9.00732c0.18589,-6.10679 -0.12217,-12.29604 0.16611,-18.39448c-2.29687,2.03247 -4.20234,4.06333 -6.37427,6.22017l-7.20586,7.01865c0.17695,2.47588 0.01025,5.85308 -0.00542,8.38901c-0.03296,5.27783 -0.16743,10.60459 -0.03545,15.88213c3.70752,0.12876 7.68018,-0.14634 11.27944,0.08013c2.63115,2.84868 6.58462,7.14756 9.3917,9.76611c-0.40693,0.81885 -0.89312,1.87061 -1.38281,2.61768c-3.68086,-2.6792 -6.21885,-6.58052 -9.55972,-9.35244c-2.42739,-0.15015 -11.04565,0.59956 -12.36035,-1.07651c-0.33223,-0.42363 -0.36987,-0.90015 -0.41982,-1.41636c-0.20874,-2.15771 -0.03779,-4.4814 -0.02432,-6.65742c0.03149,-5.02632 0.16465,-10.06406 0.09741,-15.0895c-5.55146,5.279 -11.19771,11.32354 -16.70068,16.78286l-9.04453,8.96104c-1.72866,1.71372 -3.5332,3.35991 -5.13955,5.18379c2.80269,-0.07178 5.61226,0.05273 8.4104,0.00586c8.72915,-0.14795 17.57695,0.0498 26.29131,-0.06152c2.51206,2.64551 5.22202,5.28369 7.79604,7.88379c2.17354,2.19727 4.66816,5.0625 7.1124,6.84521c1.37578,-0.14795 2.17866,-0.25195 3.57187,-0.09961l-0.05332,2.92383l-5.30186,0.11133c-2.04478,-1.61426 -3.61816,-3.67236 -5.41904,-5.49902c-2.77383,-2.81543 -6.07207,-6.5083 -9.01289,-9.08203c-3.0416,-0.15967 -6.88638,-0.02783 -9.97661,0.00879c-4.50571,0.03955 -9.01157,0.03662 -13.51729,-0.00586c-3.14795,-0.01318 -6.52866,0.05273 -9.65405,-0.1333c4.46367,4.62158 9.47197,9.15967 13.96611,13.80469c1.70918,1.7666 5.07935,4.78711 6.47637,6.62695c0.79834,-0.87598 5.56479,-5.50781 5.26304,-6.28271c-1.88174,-4.83691 4.51187,-9.87598 8.21206,-6.12012c4.40669,4.47217 1.15635,11.4917 -5.98345,8.79785c-1.98604,2.03613 -3.44722,4.0166 -5.25571,5.94434c3.77329,3.0249 9.69741,9.58887 13.27676,13.3418c2.72871,-2.90918 6.20156,-6.72217 9.35186,-9.2417c0.26191,-0.20947 1.71284,-0.34424 2.11362,-0.32666c1.72998,0.07617 10.36348,-0.19629 11.20942,0.22705c0.51035,0.73975 0.34321,1.75781 0.29736,2.66602c-3.62212,-0.01904 -8.99839,0.26367 -12.30586,0.08789c-2.93174,2.7334 -5.59292,5.90625 -8.44775,8.70264c2.35913,2.43604 4.74844,4.84277 7.16719,7.22021c0.90044,0.88916 3.17842,3.68115 4.3582,3.33545c0.92256,-1.77539 -2.65371,-4.67871 -2.7438,-6.19775c1.58716,-0.86426 4.34048,-0.50684 6.05728,-0.02197c3.42876,0.9668 4.89976,2.68652 7.45576,4.83838l2.42871,0.32227c0.02227,-1.64795 0.12554,-4.13965 0.02812,-5.72314c3.61128,0.92432 6.65435,2.75391 8.53726,6.02783c1.71577,2.98389 1.84233,4.73145 4.25112,7.35498c0.96855,-2.00684 1.65615,-3.87451 2.46694,-5.9458c3.11001,2.66016 4.71504,6.08496 5.39575,10.0752c0.58491,3.42627 0.81299,4.91602 4.58452,5.66162c-0.42861,-1.23633 -1.48887,-4.14258 -1.28232,-5.37158c0.24814,-0.29004 0.53086,-0.50537 0.95039,-0.47754c3.55767,0.24316 6.6772,0.90967 9.53408,3.01465c1.73877,-2.19727 2.55176,-3.68555 2.20898,-6.61816c-0.04395,-0.39111 -0.09229,-0.78223 -0.14355,-1.17187c-1.23047,1.26416 -4.11167,4.94385 -5.81836,4.48389c-0.99683,-1.57764 4.27295,-5.90771 4.60547,-7.32861c0.38232,-1.63184 -3.13726,-4.59229 -4.20557,-5.58545c-0.37354,2.23096 -0.8395,5.68945 -1.33389,7.77979c-2.83535,-2.23535 -5.60391,-5.49902 -7.1127,-8.79346c-1.86665,-4.07373 -1.03608,-5.17969 -4.66304,-8.10205c-0.94468,2.7876 -0.95464,4.97168 -1.61968,7.80762c-3.56689,-3.60352 -6.40898,-7.23193 -7.57368,-12.30469c-0.55122,-2.40088 -0.03105,-4.69336 -1.9563,-6.54492c-1.80732,1.94971 -2.57651,4.24658 -4.26636,6.32666c-3.34102,-6.50391 -3.98613,-11.79639 -2.52832,-19.06201c0.07837,-0.39111 -0.08525,-1.75195 -0.10078,-2.23389c-1.98955,1.13379 -4.62231,3.34424 -6.05332,4.03125c-1.40786,-5.12402 0.08291,-11.03906 2.63481,-15.57715c1.17261,-2.08594 2.83213,-4.09292 3.82778,-6.254c-3.38584,0.19146 -4.7001,0.77988 -7.84072,1.36729c2.13779,-6.60557 4.34341,-10.21523 10.31221,-14.01108c1.46353,-0.93076 3.67866,-2.27725 4.82388,-3.49849c-1.9689,-0.79116 -3.67529,-1.1811 -5.77808,-1.4688c-0.7541,-0.10313 -2.5418,-0.31362 -3.08394,-0.71045c0.22134,-0.95171 3.82573,-3.40854 4.75898,-3.97632c3.72744,-2.26787 7.09702,-3.98511 11.47485,-4.66816c1.45298,-0.22661 3.14253,-0.33076 4.51245,-0.5896c-1.91162,-2.58457 -4.1439,-4.28438 -6.80405,-6.07295c5.43779,-2.43838 11.96572,-2.30537 17.67891,-0.7998c1.88262,0.49614 4.16851,1.55186 6.12114,2.13896c-8.33364,-8.44365 -12.03413,-15.18135 -11.95884,-27.24053c-0.0019,-0.78955 0.01377,-1.5791 0.04746,-2.36792c1.22739,1.67549 2.15889,3.99873 3.11104,5.85894c1.97651,3.86133 4.14185,7.64971 7.18315,10.78843c0.6958,0.721 1.71826,1.9374 2.65283,2.27695c0.30908,-0.44839 -0.05859,-0.84639 0.27686,-1.53896c1.03125,0.17065 7.19531,9.6041 8.62939,9.17344c-0.25049,-0.82178 -1.8252,-3.26733 -2.28662,-4.34326c-2.70117,-6.30747 -3.4585,-9.98394 -2.96338,-16.59639c3.43359,5.22612 6.19336,11.22495 10.48535,16.06978c1.66699,1.85142 3.48633,3.55562 5.19434,5.37187c1.80469,1.91733 3.70166,4.79561 5.52539,6.54272c4.66846,4.46997 6.49072,3.88638 7.29053,10.81626c3.1333,1.51421 5.38916,3.50244 8.75098,4.60107c0.35156,-0.69434 0.71484,-1.3834 1.08691,-2.0666c2.62207,2.6877 3.44238,3.62271 4.77686,7.12222c-0.46143,1.70039 -1.58496,6.27773 -2.9458,7.52651c-0.19775,0.18164 -2.25293,0.88345 -2.7041,1.09248c-1.05908,0.49233 -1.92187,1.82065 -3.02637,1.83384c-0.60498,-0.502 0.49658,-2.26597 0.1875,-3.61934c-0.16846,-0.17827 -0.25049,-0.35068 -0.43652,-0.30615c-1.36084,0.32432 -2.25,1.48096 -3.76904,2.2396c-0.07764,-1.11021 0.00293,-4.07373 -0.56543,-4.7228c-1.73877,-0.60718 -3.11426,1.85493 -4.5,1.57222c-0.32227,-0.64438 0.20508,-1.78213 0.4541,-2.4293c-2.46094,-0.55518 -3.27539,-1.79282 -5.17529,-3.23525c-1.93652,-0.13579 -3.73682,-0.05112 -5.60596,-0.1645c1.0459,1.62466 1.27734,1.92861 1.6582,3.81943c0.34424,-0.38013 0.75586,-0.96533 1.17334,-1.10405c0.86426,0.66255 0.89648,5.55059 3.54492,6.66416c0.76318,0.01641 1.72119,-0.02051 2.43164,0.1916l0.13037,0.19512c-0.34717,1.23911 -0.53906,0.64731 -1.17187,1.23911c0.43945,0.9624 0.79395,1.5498 1.34619,2.45801c0.50244,-0.66211 2.68799,-3.53452 3.54346,-3.1998c-0.17285,1.02305 -0.24463,1.37461 -0.07031,2.41318c-0.14502,0.27246 -0.28564,0.54932 -0.42334,0.82617c-0.25781,0.53467 -0.32227,0.72217 -0.13916,1.24072c0.89648,0.11865 2.81982,-1.88086 3.9126,-2.43457c0.11572,2.0127 -0.27246,6.52734 -1.34766,8.10352c-1.69629,2.49023 -8.45508,5.73779 -11.31885,6.3252c1.1499,-1.86768 1.88379,-2.37012 2.88721,-4.60547c-2.43896,-0.29004 -5.56055,-0.20947 -7.95117,-0.73535c-0.31055,-0.06885 -0.33398,-0.2666 -0.43359,-0.50391c0.25635,-1.06934 1.94238,-1.98779 2.87842,-3.53906l0.10547,-0.17871c-1.5791,-4.31104 -3.45703,-6.83086 -7.87646,-8.36572c-1.19971,-0.4166 -3.0835,-0.99185 -4.12207,-1.62114c-2.27051,-1.37739 -4.17773,-5.36895 -4.78564,-7.86357c0.42627,-1.59932 0.9668,-2.43867 1.84277,-3.85488c0.39258,3.19468 1.771,6.76289 3.84375,9.27334c1.7959,0.68247 5.32178,1.78711 6.81592,2.58765c3.90527,2.09136 6.19043,6.08848 7.38867,10.23545c-0.28418,0.75732 -0.62109,1.23633 -1.04443,1.92041c1.70654,0.08496 3.59033,0.0293 5.31152,0.01465c0.28271,0.67529 0.41162,1.01367 0.8042,1.6377c1.05322,0.06738 3.56104,-2.00684 3.77344,-3.04834c-0.45117,-0.84375 -3.07031,-0.87012 -3.79541,-1.396c-4.48096,-3.24609 -7.25098,-8.92617 -10.31543,-13.45298c-0.34424,-0.50889 -0.33838,-2.69634 -0.35742,-3.41265c-1.14697,-0.33208 -2.00537,-0.51885 -3.18018,-0.74985c-1.2832,-1.6084 -2.55322,-4.39248 -4.25391,-5.47588c-0.79248,-0.50493 -2.83008,-0.13667 -3.38232,-1.26387c0.11719,-0.6583 0.5083,-1.11885 0.8877,-1.68794c6.05566,0.68701 5.27051,1.54116 8.01123,5.88984c0.81445,1.29258 7.68604,0.81123 9.76611,0.82471c1.77832,1.13394 3.76758,3.59839 5.82568,3.82998c3.45996,0.3895 4.08105,-0.24844 6.33545,2.91885c0.20801,-0.06943 0.41748,-0.13535 0.62842,-0.19805c3.30176,-0.97354 2.7041,1.00078 4.01367,1.72266c1.13232,0.05537 1.49121,-1.60532 1.65967,-2.54429c0.646,-3.6022 0.71191,-4.85552 -3.09961,-5.46401l-0.35156,0.21665l-0.0293,0.22822c0.5376,0.64043 1.72266,2.19082 1.55273,3.0252c-1.26416,1.40464 -4.99805,-1.47407 -2.46533,-3.50376c-2.72754,-2.07144 -6.21094,-3.42656 -9.47461,-5.76738c-0.35742,-3.13901 -0.11719,-5.02207 -2.87402,-7.27002c-1.3125,-1.07007 -2.6792,-1.52681 -3.98145,-2.37158c-3.49951,-2.27183 -7.03125,-4.04795 -10.76953,-5.87373c-1.19971,-0.58608 -2.53564,0.0063 -3.50244,-0.66064c-0.07031,-0.04219 -0.14062,-0.08423 -0.21094,-0.12642c-2.25732,-1.43906 -3.94922,-3.68452 -6.01172,-5.33511c-0.09229,0.01494 -0.18311,0.03003 -0.27539,0.04512l-0.41455,0.43242c-0.9126,-0.20801 -6.84624,-7.25669 -7.82593,-8.4249c-0.79395,-0.94673 -2.23301,-3.42495 -3.15088,-4.35571c2.15449,6.49307 7.11987,12.78003 11.9978,17.47573c3.41016,3.2811 5.99561,3.04995 6.22412,8.93672c-2.63086,-2.20298 -5.67041,-6.49688 -8.92236,-6.52222c-1.94531,-0.01523 -4.06157,0.28799 -6.06899,0.01055c-2.62559,-2.80591 -9.06826,-2.55161 -12.65625,-2.17163c1.34092,1.30415 2.51895,2.73926 3.91333,3.93779c0.74985,-0.36123 1.49238,-0.73784 2.22686,-1.12954c0.54375,0.53848 1.16821,1.12617 1.66963,1.69468c-10.7521,5.3436 -18.91729,13.10317 -22.66216,24.75293c-2.88311,8.96953 -2.72197,19.27471 1.49194,27.84844c3.77402,7.67871 8.64141,12.50244 15.31406,17.83154c5.59072,4.42676 12.76582,7.52637 17.09678,13.34766c0.98438,1.32275 1.52783,3.60352 1.76221,5.20605c0.73682,5.03906 -1.86182,10.46924 -6.42349,12.83203c-2.8377,1.4707 -6.5313,1.26709 -9.51709,0.34424c-2.45273,-0.76465 -4.36348,-2.57227 -6.16509,-4.30371c-5.75728,-5.53564 -10.05146,-11.57373 -18.49673,-12.82031c-4.14976,-0.6123 -6.59561,-0.57275 -10.57954,0.79541c1.77231,1.49561 2.47983,2.64551 3.98745,4.22168c3.33794,0.26367 6.85854,0.3208 9.90923,1.875c4.51128,2.2749 7.52358,6.33984 10.96729,9.88184c2.95591,3.03955 6.30483,5.39063 10.40068,6.60645c2.53521,0.75293 2.75728,0.46143 4.00767,-1.68311c4.33682,0.07178 6.99653,0.48779 10.31733,-2.85937c1.28027,-1.29053 1.93652,-2.08447 2.92529,-3.63867c0.5874,0.37646 1.12354,0.63428 1.50732,1.20117c0.37939,2.55762 -6.36182,7.71094 -8.96191,7.80029c-1.36216,0.04688 -2.72241,-0.16113 -4.13101,-0.01904c-0.65112,0.86133 -0.83701,1.13379 -1.32554,2.10059c-1.11782,-0.01172 -3.023,0.00146 -4.05718,-0.16846c-4.5353,-0.74268 -9.13638,-4.01221 -12.24565,-7.27881c-5.23784,-5.50195 -8.3937,-10.49121 -16.73159,-10.96436c3.14165,2.58398 5.80034,5.71582 8.63115,8.61621l10.56504,10.6333c2.89775,2.91797 5.99678,6.14063 9.03589,8.86816c8.43706,0.8335 15.14561,0.3501 22.15342,-5.25879c12.74121,-10.19824 14.42578,-28.61426 4.23633,-41.18555c-1.90576,-2.35107 -4.26562,-4.22168 -6.646,-6.08496c-2.85937,-2.25879 -5.77734,-4.44434 -8.74951,-6.55371c-7.08574,-5.12842 -12.40093,-8.79932 -15.11968,-17.68652c-2.29761,-7.51025 -0.98628,-14.74351 3.81694,-21.03281c1.39937,-1.85142 2.11655,-2.82495 4.14756,-4.03828c-1.4168,-0.21343 -4.12661,-0.79629 -5.2938,-1.6166l-0.12612,-0.2603c0.27671,-0.404 9.22676,-3.41807 10.1644,-3.59106c0.17109,-0.0312 0.34233,-0.06079 0.51401,-0.08877c-3.16714,-1.00459 -9.63105,-5.16343 -12.31978,-7.32744c1.81362,-0.29692 9.8647,-0.52896 11.85,-0.37383c-0.69741,-0.86045 -4.54424,-6.75747 -4.56577,-7.65498c1.24087,-0.83394 3.7875,1.01323 5.0042,1.36875c4.68779,1.36948 10.73613,3.13608 13.96025,7.05c-4.32715,-0.61479 -10.03418,-3.28184 -14.36558,-4.64136c1.88452,2.24839 3.44663,3.9835 5.01255,6.49512c-1.41504,-0.28447 -8.3127,-0.3186 -9.97383,-0.22295c4.69307,2.04082 7.10845,3.68115 11.44893,6.09814c-2.74805,0.60117 -6.97368,2.03687 -9.71895,2.95913c1.27749,0.14751 10.88643,2.38037 10.55391,3.9123c-0.28711,1.32744 -3.17871,3.71191 -4.26123,5.01299c1.47656,-0.01831 3.0498,-0.06855 4.5249,0.04541c0.92285,0.07148 3.24756,0.97251 3.2666,2.02485c-0.97119,0.88315 -7.15283,-0.15835 -9.21226,0.29722c-2.15127,2.27051 -2.03789,4.32861 -2.05723,7.22461c-0.0668,9.99609 10.8022,13.54248 17.89937,17.85791c4.85889,2.95605 10.06494,5.84326 14.30127,9.68115c8.0127,7.32715 12.73535,17.57227 13.10449,28.42383c0.04248,1.36377 0.06592,2.729 0.06738,4.09424c5.15625,-5.86523 10.27734,-10.87646 15.82471,-16.35059c1.89844,-1.87354 4.87793,-4.69482 6.52295,-6.59912c-2.77881,-3.00146 -5.6543,-5.91211 -8.61914,-8.72754c-3.89062,-0.03662 -9.67383,0.19189 -13.36963,-0.03076c-1.27295,2.86963 -4.21289,4.87793 -7.32275,3.26074c-4.56006,-2.37158 -3.97705,-8.55322 0.9375,-10.00049c2.79199,-0.82617 5.39502,1.30811 6.53467,3.8584c3.17285,-0.10693 6.3457,-0.15234 9.52002,-0.1333c1.4707,0 3.69873,-0.06445 5.12109,0.04395c1.83691,1.72119 3.61377,3.58154 5.37598,5.38184c1.28613,1.31396 2.86816,2.81543 3.99756,4.24512c1.42383,-1.6377 3.34863,-3.479 4.89551,-5.03613l8.39941,-8.42432l-5.36719,-5.76416c-1.46777,0.65918 -2.83301,0.75586 -4.35205,0.1582c-4.79297,-1.88525 -4.1001,-8.07275 0.46436,-9.75c1.17627,-0.42187 2.47412,-0.34424 3.5918,0.21826c2.97949,1.46484 3.4834,4.53076 2.50195,7.20703c-0.16846,0.46143 4.92188,4.96143 5.5166,5.70264c1.20557,-1.6582 4.59961,-4.82373 6.17432,-6.37061l8.36426,-8.37598c1.91455,-1.88379 3.99756,-3.7251 5.81982,-5.68506c-10.83398,0.36182 -22.46484,-0.05273 -33.40576,0.11865c-1.73877,1.94824 -3.58301,3.62842 -5.37744,5.49023c-2.98975,3.10547 -5.87109,6.09082 -9.03223,9.03076c-3.78223,-0.2124 -7.92187,-0.18896 -11.73047,-0.19336c0,-0.95215 -0.02344,-1.93359 0.06738,-2.87988c3.53174,-0.07764 7.06641,-0.09229 10.59961,-0.04248c2.05078,-2.39062 5.47559,-5.56055 7.73438,-7.87354c1.59814,-1.63623 5.0918,-5.25732 6.78223,-6.60205c11.18994,0.31055 23.62646,0.08643 34.90283,0.07324c-2.11084,-2.46079 -4.52783,-4.61323 -6.84814,-6.87773c-3.72217,-3.6334 -7.26416,-7.41372 -11.08008,-10.95688c-0.93604,-0.86851 -3.4292,-2.57373 -1.36084,-3.84009c0.43652,-0.26733 0.82031,-0.3 1.31982,-0.25781c1.11182,0.61421 4.87207,4.55508 6.08936,5.76738c5.02441,5.00332 10.23193,9.88257 15.12451,15.01084c0.71338,0.74854 1.39014,1.62305 1.8999,2.52246c-1.45752,1.61865 -3.16699,3.17432 -4.7168,4.74023c-3.33105,3.41016 -6.6958,6.78662 -10.09277,10.12939l-21.02344,21.0542l-28.76807,28.92041c-8.13574,8.32324 -16.3374,16.58203 -24.60059,24.77783c-1.50586,1.48096 -15.55371,15.89355 -16.18945,15.91846c-0.85107,0.03516 -2.33203,-1.61426 -2.9751,-2.22803c-6.36299,-6.06738 -12.46816,-12.42627 -18.65977,-18.66797l-34.40874,-34.67432l-27.23877,-27.44824c-6.83188,-6.79834 -13.70083,-13.59082 -20.47969,-20.44482c-0.66929,-0.67676 -1.33813,-1.48096 -1.76558,-2.33203c1.41401,-2.02734 4.06626,-4.53604 5.8897,-6.34863l8.88794,-8.82144l35.37612,-35.4561l35.76577,-36.08511c4.73921,-4.84849 9.52588,-9.65039 14.35913,-14.40498c1.34927,-1.30723 3.62739,-3.76289 4.95308,-4.76602z" fill="#e20805"/>
<path d="M177.98877,192.38818l0.18457,-0.01611c4.08398,-0.34277 4.47949,0.01025 5.92236,3.79541c1.59961,4.19385 2.08008,8.02441 2.29688,12.44678c-2.61768,-0.3252 -6.53613,-0.39844 -9.25635,-0.53027c-1.97607,-0.11133 -3.93896,0.00146 -5.91357,0.09668c-0.23877,-4.08984 -1.23633,-8.10059 -2.94141,-11.82715c2.82568,-2.16064 6.17578,-3.53027 9.70752,-3.96533z" fill="#000000"/>
<path d="M171.37793,210.66211c3.82617,0.104 7.57178,0.45557 11.39063,0.56543c1.21143,0.03516 2.37012,0.08057 3.58008,0.16992c0.00146,0.33545 0.00146,0.6709 -0.00146,1.00781c-0.03223,2.74512 -1.1792,3.30322 -2.93408,5.15039c-1.27295,1.34033 -2.5957,2.63232 -3.92139,3.92139c-1.41797,1.33887 -2.91211,2.92529 -4.28613,4.33154c-1.77979,-1.01367 -4.78271,-2.24854 -6.8584,-3.3252c1.97461,-3.57422 2.521,-7.85156 3.03076,-11.82129z" fill="#000000"/>
<path d="M169.44141,178.41064c3.01025,-0.2168 9.91406,9.13184 11.47705,11.34375c-4.14404,-0.39551 -6.94482,0.15674 -10.72559,2.04492c-1.0957,0.63281 -2.146,1.3418 -3.14355,2.12256c-1.5,-3.03955 -4.22168,-6.02051 -6.52002,-8.46387c2.21631,-3.17139 5.31592,-5.62207 8.91211,-7.04736z" fill="#000000"/>
<path d="M157.10596,170.61182c2.49316,0.89795 8.09619,4.34912 10.32422,5.99268c-3.36182,1.44141 -5.92822,3.46582 -8.2749,6.22852l-0.8042,1.04736c-2.25586,-2.19434 -6.03223,-4.44434 -8.56934,-6.60645c3.11279,-3.33398 3.14795,-3.94482 7.32422,-6.66211z" fill="#000000"/>
<path d="M156.43359,236.12109c0.60645,0.60059 2.97949,3.96973 3.59912,4.8208c-1.25684,1.38574 -2.71875,2.69678 -4.07666,3.99609c-1.396,1.33447 -2.80078,2.85791 -4.28613,4.05762c-0.84814,0.05859 -1.86621,0.02783 -2.73193,0.02197c-2.77339,0.07031 -2.56436,-0.33252 -2.89307,-3.13623c-0.2165,-1.8457 -0.34761,-3.69287 -0.6375,-5.53271c3.89385,-0.99609 7.68486,-1.81641 11.02617,-4.22754z" fill="#000000"/>
<path d="M147.22559,164.33936c0.4248,0.08203 1.74902,1.16016 2.26172,1.51904c1.6875,1.1792 3.2959,2.20459 5.14453,3.13623c-2.08447,1.41064 -3.86719,2.92529 -5.46826,4.85742c-0.38525,0.46436 -1.12207,1.46777 -1.56592,1.72266l-0.33984,-0.22705c-2.4353,-1.5249 -6.14766,-4.35498 -8.06104,-6.4043c2.88428,-1.77393 5.0105,-3.02197 8.02881,-4.604z" fill="#000000"/>
<path d="M167.07568,225.19482c1.58789,0.34277 4.5,2.03467 6.11572,2.81689l-9.57568,9.5127l-1.24219,1.27881c-1.40186,-1.5 -2.47559,-2.67334 -3.80127,-4.24072c3.00293,-2.42432 6.38525,-6.17139 8.50342,-9.36768z" fill="#000000"/>
<path d="M133.35688,156.71777c2.80107,0.19189 5.55322,0.104 8.35752,0.0293c0.81489,2.06104 1.95425,3.80859 3.34146,5.52686c-0.89546,0.57275 -1.7332,1.16162 -2.60332,1.77246c-1.63901,1.021 -3.7604,1.68164 -5.13208,2.66748c-2.28662,-3.54492 -3.41558,-5.78174 -3.96357,-9.99609z" fill="#000000"/>
<path d="M135.68789,143.4772c0.27334,0.08804 1.14609,0.55122 1.54233,0.72246c1.45913,0.63105 2.96968,1.21978 4.38296,1.93945c0.48662,0.68511 -0.65713,4.28862 -0.58198,5.52202c0.03457,0.56396 0.075,1.70801 0.10635,2.29541c-0.48691,0.22559 -1.03198,0.14502 -1.61118,0.14355c-2.17515,0.02344 -4.35044,-0.00439 -6.52441,-0.08203c0.12363,-4.10742 0.427,-7.00781 2.68594,-10.54087z" fill="#000000"/>
<path d="M142.04722,136.35146c1.83823,0.26514 3.06489,1.36172 6.07339,1.56387c-1.72383,1.89771 -3.64365,3.93193 -5.10044,6.02476c-1.99731,-1.0002 -3.69595,-1.50278 -6.0189,-2.74951c1.63228,-1.78271 3.12539,-3.35273 5.04595,-4.83911z" fill="#000000"/>
<path d="M157.18799,98.42314c0.23145,0.20229 0.16113,0.11104 0.3208,0.35962c2.07568,3.24536 4.6582,6.49116 7.23047,9.35273c1.57324,1.74976 3.64307,3.42905 5.07568,5.29014c-0.67236,-0.13403 -6.25195,-3.35962 -6.96533,-3.98115c-1.92187,-1.67607 -3.54199,-5.24355 -4.32275,-7.64312c-0.36035,-1.10786 -1.18506,-2.27168 -1.33887,-3.37822z" fill="#000000"/>
<path d="M111.74004,110.92983c1.37607,-0.35493 2.77939,0.473 3.13389,1.84922c0.35464,1.37622 -0.47388,2.77925 -1.8501,3.13345c-1.37578,0.35405 -2.77808,-0.47402 -3.13257,-1.84966c-0.35449,-1.37563 0.47314,-2.77822 1.84878,-3.13301z" fill="#000000"/>
<path d="M148.90869,69.33691c0.85986,-0.29854 1.81348,-0.11177 2.49609,0.48882c0.68262,0.60059 0.99023,1.52212 0.8042,2.41245c-0.18604,0.89048 -0.83643,1.61191 -1.70361,1.88862c-1.31543,0.42056 -2.72607,-0.29546 -3.1626,-1.60649c-0.43799,-1.31104 0.26074,-2.72988 1.56592,-3.1834z" fill="#000000"/>
<path d="M127.44697,120.12847l0.25415,0.0583c-0.21196,0.47769 -1.75093,1.50205 -2.34829,2.03145c-1.22593,1.08325 -2.38052,2.24443 -3.45674,3.47651c-1.23721,-0.57129 -2.11392,-0.67998 -3.43125,-0.93472l-1.53896,-0.21592c4.46484,-2.71934 5.61855,-2.86802 10.52109,-4.41563z" fill="#000000"/>
<path d="M185.96338,111.30352c1.25244,-0.53335 2.69971,0.05508 3.22559,1.31118c0.52588,1.25625 -0.07178,2.7 -1.33154,3.21768c-1.24805,0.51313 -2.67627,-0.07793 -3.19775,-1.32305c-0.52002,-1.24512 0.06152,-2.67715 1.30371,-3.20581z" fill="#000000"/>
<path d="M169.15576,88.77979c1.29346,-0.07969 2.3584,0.04116 3.0542,1.30708c0.31055,0.55605 0.37646,1.21626 0.18164,1.82256c-0.29004,0.91201 -0.78076,1.24805 -1.58057,1.65469c-1.14404,0.10078 -1.84424,0.01743 -2.60156,-0.96108c-0.46582,-0.59004 -0.64893,-1.35483 -0.50098,-2.09209c0.17139,-0.8981 0.73096,-1.26973 1.44727,-1.73115z" fill="#000000"/>
<path d="M218.32031,160.84277c0.58008,-0.0542 1.04004,-0.08057 1.59229,0.14063c0.66504,0.26953 1.19531,0.79395 1.47363,1.45605c0.55957,1.35205 -0.07324,2.58545 -1.39453,3.11865c-3.46875,0.18018 -4.48535,-2.58398 -1.67139,-4.71533z" fill="#000000"/>
<path d="M183.67676,176.37891c3.41748,0.12598 4.22021,3.62256 1.16455,4.93945c-1.11328,0.04248 -1.92627,-0.25781 -2.5166,-1.28174c-0.36768,-0.64307 -0.44092,-1.41357 -0.20215,-2.11523c0.28564,-0.84668 0.7998,-1.1792 1.5542,-1.54248z" fill="#000000"/>
<path d="M128.64829,95.44307c1.25449,-0.26719 2.49229,0.51812 2.78525,1.76689c0.29297,1.24878 -0.4667,2.50254 -1.70918,2.82114c-0.82676,0.21196 -1.70361,-0.03955 -2.29219,-0.65786c-0.58857,-0.61816 -0.79687,-1.5063 -0.54463,-2.32178c0.25239,-0.81533 0.92578,-1.43071 1.76074,-1.6084z" fill="#000000"/>
<path d="M79.98677,160.72412c3.04673,0.17725 4.09746,3.479 0.94526,4.82813c-3.13301,-0.38965 -4.05659,-3.98584 -0.94526,-4.82812z" fill="#000000"/>
<path d="M115.99189,134.33013l0.03589,0.04028c0.03662,0.23774 -2.51455,6.30454 -2.80635,7.0812c-1.2208,0.08584 -2.09839,0.20479 -3.31553,0.42686c-0.06445,-0.15718 -0.05947,-0.2625 -0.08145,-0.43843c0.77725,-2.17573 4.30444,-5.7082 6.16743,-7.10991z" fill="#000000"/>
<path d="M111.6145,151.55273c0.08877,0.25342 0.09829,0.19336 0.08921,0.41602c-0.10093,2.43311 -0.20947,4.71826 0.43052,7.08984c-0.9835,0.83936 -1.64194,1.21875 -2.76958,1.81201c-0.26631,0.00293 -0.12524,0.03662 -0.39873,-0.17432c-0.45,-2.6499 1.52227,-6.80713 2.64858,-9.14355z" fill="#000000"/>
<path d="M123.97295,181.86328c0.46538,0.21826 4.154,4.14258 4.76177,4.76074c-0.35742,0.95801 -0.69683,1.92188 -1.01807,2.8916c-0.00879,0.18018 -0.05889,0.28564 -0.11265,0.46436c-1.35864,-0.45117 -3.52939,-6.58594 -3.63105,-8.1167z" fill="#000000"/>
<path d="M136.53105,192.40137c0.52485,0.22705 4.23809,3.09521 5.09165,3.7002c-0.18325,1.30957 -0.34468,2.08594 -0.675,3.36768c-0.05581,0.1377 -0.00762,0.03955 -0.22207,0.2417c-1.15005,-0.40869 -3.68276,-5.90479 -4.19458,-7.30957z" fill="#000000"/>
<path d="M114.70825,169.10596c0.65786,0.28564 2.62983,4.58203 3.00264,5.45947c-0.38188,0.69873 -0.85371,1.41357 -1.27954,2.09033l-0.88564,1.35059c-0.55225,-4.11328 -0.91465,-4.53516 -0.83745,-8.90039z" fill="#000000"/>
<path d="M138.51738,240.20801c1.35249,0.02783 2.70513,0.03809 4.05791,0.03369c0.21372,1.75342 0.37017,3.15234 0.72979,4.89258c-0.86602,-0.37061 -3.85107,-3.89062 -4.7877,-4.92627z" fill="#000000"/>
<path d="M139.83574,213.4292c1.00723,0.1875 4.91499,1.0166 5.25337,1.93652l-0.36357,0.27979c-2.07334,0.5918 -2.75669,0.54053 -4.91865,0.55664c-0.03223,-1.00781 -0.01831,-1.76514 0.02886,-2.77295z" fill="#000000"/>
<path d="M128.96836,205.4751c0.59399,0.6665 2.13823,5.09766 2.01738,5.97803l-0.18105,0.04541l-0.39932,-0.35596c-1.05996,-1.11768 -2.03481,-2.27783 -3.03442,-3.44824z" fill="#000000"/>
<path d="M115.70229,196.85742c1.12456,0.58154 3.90483,3.52441 4.19355,4.75928l-0.20376,0.14063c-1.40464,-1.01367 -2.96411,-2.06396 -4.66187,-2.42871c0.27026,-0.76611 0.47139,-1.67432 0.67207,-2.47119z" fill="#000000"/>
<path d="M101.28896,195.91406c1.00679,0.10693 3.77783,1.18506 4.16001,2.1167l-0.16377,0.20801c-1.0002,0.12744 -2.05649,0.30176 -3.05947,0.44971c-0.32666,-0.89502 -0.63296,-1.86621 -0.93677,-2.77441z" fill="#000000"/>
<path d="M125.12095,152.06396l0.1207,0.00879l0.20127,0.01318c1.02568,0.07178 1.19824,0.0542 2.19038,-0.08789c-1.03901,6.43799 0.68525,13.0166 4.74932,18.11865c1.55039,1.95264 3.08599,3.21533 4.40903,5.39355c-0.64585,1.48682 -1.47202,2.88867 -2.45977,4.1748c1.28555,0.81152 3.12202,2.85059 4.33638,4.00928c0.88521,-1.34326 1.53413,-2.66016 2.27051,-4.08691c7.04121,5.85059 16.08955,9.93164 20.06807,18.84814c1.43701,3.21973 1.60254,6.05859 2.09619,9.43652c0.07178,0.49219 1.88232,1.64209 2.24414,2.5166c0.60645,1.46338 0.43799,2.60156 0.0542,4.12939c-0.38965,1.6333 -3.61816,2.40527 -3.7998,2.83447c-0.21533,0.50684 -1.00928,2.83154 -1.70361,3.96973c-2.17969,3.57861 -6.12012,7.58496 -9.76758,9.74854c-0.28564,0.16992 -0.74414,-0.14941 -1.04297,-0.30029c-0.3999,0.05566 -2.65547,1.03418 -3.37295,1.28027c-1.10859,0.2959 -2.65693,0.99463 -3.63691,0.33398c-0.3501,-0.4585 -0.34907,-0.99902 -0.42246,-1.58203c1.94209,-1.31689 1.78711,-1.13818 4.03916,-1.28174c6.26865,-0.3999 11.95664,-8.04492 13.72324,-13.00049c-2.06396,-1.97754 -3.68115,-3.73389 -1.53369,-6.84375c0.66797,-0.96533 1.32422,-1.22754 2.47119,-1.39014c-0.78955,-13.58057 -8.75391,-17.48437 -18.47607,-24.81885c-0.84595,0.97266 -1.70566,1.93359 -2.57915,2.88135c-2.77632,-1.44727 -5.59585,-3.50537 -7.68135,-5.85645c0.6813,-1.62451 1.57998,-3.39697 2.35386,-5.00098c-7.08501,-7.25537 -10.01631,-13.16309 -8.85132,-23.44775z" fill="#e20805"/>
<path d="M160.78125,210.3501c2.93408,-0.00146 3.41162,2.75977 1.07959,4.27441c-2.55176,-0.0249 -3.78516,-2.73486 -1.07959,-4.27441z" fill="#000000"/>
<!--  -->
<path d="M218 113 L216 118 L216 122 L211 122 L210 129 L212 132 L207 138 L201 139 L197 148" fill="none" stroke="#e20805" stroke-width="3" stroke-linecap="square" stroke-linejoin="miter"/>
<path d="M134.56904,125.97026c0.36562,0.20435 0.4875,1.10083 0.64863,1.64985c-0.87861,1.52944 -2.23389,2.6937 -3.43066,3.99097c-2.09385,2.27021 -3.89326,4.22212 -5.37026,6.96738c2.5645,3.47622 1.41694,8.31899 -3.53145,8.14028c-1.20981,7.48096 -0.79702,9.71631 0.06797,16.99072c-0.72993,0.35889 -1.42061,0.70313 -2.17251,1.021c-1.25259,-2.86963 -1.25918,-10.87207 -0.97354,-14.22656c0.09727,-1.14404 0.58008,-3.25195 0.79702,-4.51685c-0.80566,-0.89487 -1.37593,-1.49033 -1.57661,-2.723c-0.61377,-3.76978 1.53413,-5.96587 5.22642,-5.57109c2.10527,-4.20718 6.11162,-9.46099 10.31499,-11.72271z" fill="#e20805"/>
<path d="M122.50562,140.15522c2.78218,-0.21401 3.74136,2.04888 1.47539,4.11958c-1.09497,-0.02622 -2.74043,-1.02583 -2.65488,-2.24106c0.06167,-0.87583 0.5959,-1.32803 1.17949,-1.87852z" fill="#000000"/>
<!--  -->
<path d="M227 123 L225 126 L227 130 L220 131 L220 135 L223 138 L217 144 L209 144" fill="none" stroke="#e20805" stroke-width="3" stroke-linecap="square" stroke-linejoin="miter"/>
<path d="M163.77246,118.98281c2.59277,-0.09243 3.28271,0.78252 5.49902,1.71533c2.77441,1.16733 5.1123,1.87148 6.95654,4.46631c0.62695,0.88271 1.24951,1.46235 1.7959,2.50093l-0.1084,0.19717l-0.48779,-0.01465c-2.82861,0.02197 -6.74414,1.94194 -9.12598,-0.4998c-1.26123,-1.29419 -1.11035,-3.11514 -1.04736,-4.75562c-0.83789,-1.05161 -3.375,-2.56626 -3.48193,-3.60967z" fill="#e20805"/>
<path d="M169.6875,124.00093c0.82178,0.06855 2.74805,1.18271 2.96924,2.06118c-1.8999,0.36284 -2.63818,-0.12393 -2.96924,-2.06118z" fill="#000000"/>
<!--  -->
<path d="M190 152 L196 154 L205 153" fill="none" stroke="#e20805" stroke-width="3" stroke-linecap="square" stroke-linejoin="miter"/>
<path d="M123.63032,167.10498c0.23804,0.09229 5.00303,7.3374 5.65063,8.28809c-0.6728,0.6709 -0.82939,0.8042 -1.61133,1.3418c-1.61089,-0.57715 -5.10557,-6.73535 -5.82656,-8.3877c0.52471,-0.41016 1.22622,-0.85986 1.78726,-1.24219z" fill="#e20805"/>
</g>
</svg>
</svg>
